<?xml version="1.0" standalone="no"?>
<!DOCTYPE svg PUBLIC "-//W3C//DTD SVG 20010904//EN"
 "http://www.w3.org/TR/2001/REC-SVG-20010904/DTD/svg10.dtd">
<svg version="1.0" xmlns="http://www.w3.org/2000/svg"
 width="2550.000000pt" height="1248.000000pt" viewBox="0 0 2550.000000 1248.000000"
 preserveAspectRatio="xMidYMid meet">

<g transform="translate(0.000000,1248.000000) scale(0.100000,-0.100000)"
fill="#000000" stroke="none">
<path d="M12931 12078 c-4 -13 -11 -48 -15 -78 -14 -104 -35 -135 -181 -269
-39 -35 -169 -162 -291 -282 -264 -262 -261 -260 -446 -267 -82 -3 -134 -9
-145 -18 -36 -26 27 -35 191 -28 231 10 213 0 506 289 135 133 280 267 323
299 43 32 82 67 88 79 12 30 28 235 19 266 -9 34 -37 39 -49 9z"/>
<path d="M11991 11042 c-26 -19 -3 -37 73 -60 99 -29 -23 87 1467 -1387 233
-231 523 -516 644 -634 121 -118 335 -327 475 -465 140 -139 435 -427 655
-641 220 -215 539 -528 710 -696 278 -275 533 -524 787 -768 48 -46 99 -101
114 -123 27 -39 27 -40 10 -69 -23 -39 -8 -59 43 -59 44 0 81 33 81 72 0 38
-40 82 -330 364 -146 142 -411 403 -590 579 -179 176 -415 408 -525 515 -191
186 -870 851 -1429 1400 -142 140 -379 374 -525 520 -428 427 -1394 1377
-1421 1398 -14 10 -40 27 -58 36 -39 20 -160 32 -181 18z"/>
<path d="M11451 10638 c-4 -13 -11 -51 -15 -85 -12 -110 -25 -128 -207 -298
-113 -106 -521 -506 -1069 -1050 -245 -243 -627 -619 -850 -836 -223 -216
-562 -549 -755 -739 -362 -357 -692 -680 -754 -738 -66 -61 -285 -172 -497
-252 -178 -67 -234 -92 -234 -102 0 -25 164 33 380 135 52 25 138 61 190 81
207 79 251 103 330 178 147 140 391 378 750 733 201 198 522 513 715 700 192
187 501 491 685 675 340 339 1022 1008 1160 1138 41 38 95 85 119 103 74 56
81 72 95 206 12 124 7 173 -20 173 -8 0 -18 -10 -23 -22z"/>
<path d="M11254 8397 c-34 -13 -86 -41 -116 -63 -55 -39 -433 -403 -1143
-1103 -203 -200 -387 -377 -409 -392 -21 -16 -64 -39 -95 -51 l-56 -23 -800
-5 -800 -6 -100 -27 c-54 -15 -106 -34 -115 -43 -14 -15 -13 -16 6 -10 130 39
136 39 984 46 543 4 835 10 855 17 51 18 138 64 170 90 27 23 370 357 1045
1019 392 384 450 436 536 480 71 36 84 39 158 39 131 0 198 -47 310 -214 57
-85 113 -145 384 -408 174 -169 457 -446 627 -615 171 -169 334 -325 363 -347
29 -22 78 -49 110 -61 57 -22 60 -22 897 -24 749 -1 860 -3 1020 -20 194 -20
255 -17 255 13 0 10 -15 26 -34 36 -27 15 -43 17 -92 10 -33 -5 -97 -8 -144
-7 -47 0 -470 5 -940 10 -595 6 -865 12 -888 20 -78 26 -141 79 -397 333 -148
147 -369 363 -490 480 -335 324 -591 583 -685 693 -108 126 -148 149 -270 153
-69 2 -96 -1 -146 -20z"/>
<path d="M11286 8284 c-91 -29 -164 -88 -467 -384 -167 -162 -330 -321 -363
-354 -34 -32 -216 -212 -406 -399 -371 -366 -448 -429 -585 -477 l-70 -25
-855 -5 c-847 -6 -856 -6 -920 -28 -36 -12 -71 -22 -77 -22 -7 0 -41 -13 -75
-29 -35 -16 -72 -32 -83 -36 -12 -4 -15 -9 -8 -12 7 -2 38 5 69 16 30 12 97
31 147 42 88 20 129 21 939 25 803 4 851 5 910 24 145 44 222 108 661 539 912
896 984 966 1055 1018 77 56 120 72 193 73 44 0 64 -6 100 -28 24 -16 53 -39
63 -50 38 -44 51 -11 15 39 -49 69 -155 101 -243 73z"/>
<path d="M11546 7423 c-3 -10 -10 -49 -16 -87 -15 -97 -29 -124 -96 -185 -122
-113 -1284 -1250 -2271 -2225 -117 -115 -217 -212 -222 -215 -5 -4 -141 -137
-303 -297 l-293 -290 -150 -75 c-139 -69 -203 -96 -421 -179 -44 -16 -89 -37
-100 -45 -18 -14 -18 -14 8 -15 38 0 302 105 399 159 8 5 69 30 135 55 254 99
240 91 358 205 102 98 236 229 776 756 113 110 394 387 625 615 231 229 512
506 625 616 113 109 302 294 420 410 373 365 414 404 465 438 91 61 94 68 107
203 6 66 8 132 4 147 -7 30 -42 36 -50 9z"/>
<path d="M13360 6605 c-144 -22 -186 -48 -154 -93 20 -29 30 -28 95 7 30 16
79 35 109 42 76 17 1392 25 1578 9 198 -16 356 -46 435 -82 51 -23 71 -28 79
-20 18 18 -16 48 -80 72 -31 12 -126 33 -211 48 l-156 26 -805 2 c-624 2 -824
-1 -890 -11z"/>
<path d="M17122 6035 c-30 -7 -57 -16 -60 -20 -9 -9 34 -44 97 -78 61 -32 87
-76 77 -128 -11 -59 -63 -138 -111 -168 -90 -57 -63 -56 -1385 -56 -1374 0
-1253 -7 -1522 84 -80 27 -162 53 -182 56 -46 9 -48 -8 -4 -31 39 -20 408
-139 494 -159 146 -34 266 -36 1404 -33 1032 4 1130 5 1185 21 153 45 210 96
246 227 32 116 21 191 -36 257 -29 33 -36 37 -91 39 -32 2 -83 -3 -112 -11z"/>
<path d="M8550 5765 c-74 -41 -171 -89 -215 -106 -147 -57 -162 -58 -960 -59
-802 0 -784 1 -915 -62 -57 -27 -108 -74 -420 -382 -309 -306 -714 -703 -1560
-1531 -118 -115 -375 -369 -572 -564 -196 -195 -381 -372 -410 -394 -81 -61
-343 -181 -551 -253 -43 -15 -88 -35 -100 -45 l-22 -18 28 -1 c26 0 137 42
252 95 184 86 217 99 360 152 142 52 174 74 336 235 85 84 256 252 379 373
124 121 378 371 565 555 187 184 516 506 730 715 215 208 525 514 691 679 210
209 315 306 349 324 74 37 181 42 890 39 632 -2 641 -2 722 20 114 31 238 83
378 160 138 76 205 120 205 133 0 20 -28 8 -160 -65z"/>
<path d="M8840 5806 c-64 -24 -110 -46 -110 -52 0 -3 8 -3 18 1 9 4 44 15 76
24 33 9 61 22 64 29 5 15 -4 15 -48 -2z"/>
<path d="M8740 5690 c-38 -12 -152 -71 -147 -77 3 -2 14 0 24 5 10 6 52 22 93
36 77 27 109 47 75 45 -11 0 -31 -4 -45 -9z"/>
<path d="M8445 5540 c-3 -5 -1 -10 4 -10 6 0 11 5 11 10 0 6 -2 10 -4 10 -3 0
-8 -4 -11 -10z"/>
<path d="M14210 5536 c6 -8 42 -27 80 -41 80 -31 121 -58 210 -144 108 -104
187 -159 258 -181 63 -20 95 -20 1616 -20 1015 0 1573 -4 1616 -10 145 -23
265 -109 395 -280 40 -53 102 -126 138 -161 667 -661 708 -698 806 -731 26 -9
251 -14 811 -18 505 -5 798 -11 842 -18 79 -14 273 -20 284 -10 10 11 -22 44
-58 59 -24 10 -49 10 -122 0 -70 -9 -116 -9 -196 0 -61 7 -392 14 -795 18
-747 7 -717 5 -805 65 -40 27 -239 220 -675 654 -71 71 -181 184 -243 250
-167 180 -227 208 -462 221 -80 4 -779 6 -1555 5 -775 -1 -1439 2 -1474 7 -94
12 -158 48 -270 154 -107 101 -141 122 -268 166 -93 32 -154 39 -133 15z"/>
<path d="M8243 5500 c-29 -16 -100 -75 -159 -130 -188 -177 -166 -172 -789
-175 -524 -3 -581 -8 -700 -58 -125 -52 -318 -213 -363 -303 -24 -46 -52 -149
-52 -188 0 -61 55 -116 114 -116 39 0 43 21 9 49 -39 33 -53 61 -53 104 0 56
35 152 71 198 47 60 167 152 251 194 140 69 128 67 708 74 514 7 526 7 589 30
91 32 159 80 291 205 63 60 124 117 135 127 29 28 7 23 -52 -11z"/>
<path d="M8362 5490 c-23 -16 -96 -82 -162 -145 -136 -129 -212 -185 -315
-229 l-70 -31 -530 -6 c-568 -6 -583 -7 -688 -60 -62 -32 -148 -92 -184 -130
-95 -100 -80 -262 21 -223 21 8 20 21 -4 51 -22 28 -26 82 -9 116 36 70 146
145 259 176 71 20 100 21 562 21 312 0 506 4 540 11 137 28 257 111 508 352
130 125 154 157 72 97z"/>
<path d="M15000 5069 c-102 -10 -205 -36 -221 -55 -16 -19 -3 -61 20 -69 13
-4 35 4 61 21 93 62 9 58 1570 62 978 2 1447 -1 1494 -8 87 -13 141 -37 219
-96 59 -44 62 -45 65 -24 7 46 -96 125 -205 157 -54 16 -159 18 -1488 19 -786
1 -1468 -2 -1515 -7z"/>
<path d="M6453 4469 c-62 -30 -183 -161 -183 -197 0 -64 73 -94 246 -100 223
-8 344 30 675 213 48 26 99 57 115 70 51 40 15 41 -59 1 -341 -182 -391 -200
-567 -200 -132 -1 -182 10 -200 45 -16 30 -11 56 20 106 52 81 35 103 -47 62z"/>
<path d="M17456 4448 c-8 -13 -18 -42 -22 -66 -4 -24 -16 -57 -28 -75 -43 -63
-27 -62 -816 -62 -810 0 -727 -7 -1026 89 -78 25 -152 46 -165 46 l-23 0 20
-21 c13 -12 95 -43 215 -81 395 -123 344 -118 1164 -118 426 0 673 4 697 10
21 6 42 20 48 30 17 31 32 227 20 250 -15 28 -65 27 -84 -2z"/>
<path d="M7416 4439 c-44 -18 -112 -59 -76 -46 8 3 47 16 85 28 39 12 74 26
80 30 17 16 -39 8 -89 -12z"/>
<path d="M7360 4336 c-71 -26 -140 -60 -140 -68 0 -5 3 -8 8 -6 45 22 65 30
117 47 33 11 61 24 63 30 5 14 -4 13 -48 -3z"/>
<path d="M15564 4201 c3 -5 42 -23 86 -41 44 -18 103 -49 132 -69 170 -118
106 -111 1018 -111 603 0 798 -3 880 -14 152 -20 322 -29 340 -17 12 8 12 13
-4 30 -33 36 -78 44 -169 31 -66 -10 -106 -10 -197 0 -77 9 -369 15 -875 19
-848 7 -766 0 -905 81 -79 46 -229 100 -276 100 -20 0 -33 -4 -30 -9z"/>
<path d="M6854 4151 c-29 -15 -65 -38 -82 -50 -17 -12 -61 -36 -99 -54 l-68
-32 -540 -6 c-591 -7 -616 -9 -743 -69 -102 -48 -182 -111 -356 -281 -173
-168 -204 -212 -232 -319 -25 -98 -8 -152 60 -187 29 -15 76 -11 76 8 0 5 -19
28 -41 49 -42 39 -42 40 -36 99 10 112 43 164 206 323 210 206 323 279 486
314 68 15 158 18 600 24 511 6 521 6 577 28 65 26 152 82 218 141 53 47 44 51
-26 12z"/>
<path d="M7015 4160 c-3 -6 1 -7 9 -4 18 7 21 14 7 14 -6 0 -13 -4 -16 -10z"/>
<path d="M6949 4120 c-24 -16 -75 -55 -114 -85 -38 -31 -97 -69 -130 -85 -112
-56 -153 -60 -675 -60 -541 0 -560 -2 -705 -74 -145 -72 -386 -299 -420 -396
-22 -64 -20 -116 7 -134 28 -20 39 -20 63 -2 18 13 18 14 -3 41 -59 75 -9 169
173 326 105 91 189 143 275 171 63 21 83 21 585 22 563 1 578 2 686 57 87 43
321 230 307 244 -2 3 -24 -9 -49 -25z"/>
<path d="M8377 4014 c-85 -19 -188 -57 -165 -62 9 -2 41 5 70 15 51 17 192 18
3143 21 2921 3 3099 2 3260 -15 199 -21 386 -24 392 -6 2 6 -8 20 -24 30 -36
24 199 22 -3483 27 -2732 4 -3134 3 -3193 -10z"/>
<path d="M8370 3910 c-143 -10 -238 -38 -408 -118 -47 -22 -32 -26 19 -4 24
10 94 32 154 48 l110 29 3260 0 c2651 0 3274 -2 3335 -13 167 -29 262 -53 314
-78 55 -28 90 -27 80 0 -21 56 -316 119 -634 136 -196 11 -6077 10 -6230 0z"/>
<path d="M16177 3900 c-97 -12 -168 -29 -194 -46 -27 -17 -30 -56 -7 -75 14
-11 21 -10 48 5 65 39 103 54 167 65 86 14 1429 15 1549 1 135 -17 280 -49
339 -76 62 -28 91 -31 91 -8 0 32 -118 73 -306 106 l-179 32 -720 2 c-396 1
-750 -2 -788 -6z"/>
<path d="M19546 3868 c-150 -15 -227 -52 -200 -95 17 -28 49 -27 92 2 80 53
141 56 889 52 645 -3 684 -5 791 -25 63 -12 146 -35 185 -52 100 -42 135 -39
85 7 -49 44 -235 87 -487 113 -126 12 -1228 11 -1355 -2z"/>
<path d="M5017 3085 c-41 -14 -56 -25 -130 -95 -50 -46 -77 -87 -77 -115 0
-29 49 -63 118 -81 65 -18 327 -19 8620 -19 l8554 0 23 27 c16 19 24 44 29 95
4 37 9 86 12 108 4 32 1 46 -15 65 -19 24 -21 24 -47 10 -20 -12 -33 -33 -53
-94 -32 -97 -50 -110 -171 -125 -121 -16 -16618 -15 -16727 0 -142 20 -167 54
-113 156 39 73 34 88 -23 68z"/>
<path d="M3575 2559 c-73 -11 -192 -46 -200 -59 -8 -13 -7 -13 83 8 73 16 559
17 9442 17 8865 0 9372 -1 9488 -17 132 -19 317 -24 326 -9 4 5 -8 21 -25 35
-33 28 -61 31 -174 17 -34 -4 -128 -2 -220 5 -130 11 -1902 13 -9410 12 -5148
0 -9277 -4 -9310 -9z"/>
<path d="M3338 2483 c7 -3 16 -2 19 1 4 3 -2 6 -13 5 -11 0 -14 -3 -6 -6z"/>
<path d="M3411 2435 c-35 -8 -87 -22 -115 -31 -54 -18 -176 -72 -176 -78 0 -2
35 7 78 20 42 14 109 32 147 42 66 16 603 17 9560 17 9059 0 9495 -1 9590 -18
169 -30 268 -57 307 -82 41 -27 63 -31 74 -13 10 17 -36 53 -98 76 -30 11
-130 33 -223 49 l-170 28 -9455 2 c-8031 1 -9465 -1 -9519 -12z"/>
<path d="M22870 1848 c-18 -13 -59 -61 -90 -107 -36 -53 -70 -92 -91 -103 -32
-17 -390 -18 -9782 -18 -8339 0 -9752 -2 -9775 -14 -89 -46 -217 -136 -218
-152 -2 -37 -4 -44 -14 -44 -6 0 -13 13 -16 30 -7 35 -28 55 -49 47 -12 -5
-15 -74 -19 -489 -2 -266 -7 -504 -11 -530 -6 -38 -4 -49 8 -54 16 -6 184 44
235 70 58 30 57 20 60 537 l3 476 23 22 22 21 9760 2 9759 3 30 22 c17 12 47
44 68 70 105 134 167 217 167 225 0 15 -37 8 -70 -14z m-19960 -574 c0 -8 -4
-14 -10 -14 -5 0 -10 9 -10 21 0 11 5 17 10 14 6 -3 10 -13 10 -21z m4 -218
c-5 -14 -9 -15 -15 -4 -5 7 -9 22 -9 33 0 17 2 18 15 4 9 -9 13 -23 9 -33z
m-7 -123 c-2 -16 -4 -3 -4 27 0 30 2 43 4 28 2 -16 2 -40 0 -55z m0 -145 c-3
-7 -5 -2 -5 12 0 14 2 19 5 13 2 -7 2 -19 0 -25z m1 -98 c-1 -22 -5 -40 -9
-40 -4 0 -7 18 -7 40 0 22 5 40 10 40 5 0 8 -18 6 -40z m-1 -92 c-3 -8 -6 -5
-6 6 -1 11 2 17 5 13 3 -3 4 -12 1 -19z"/>
<path d="M22900 1674 c-129 -164 -114 -87 -120 -651 -5 -479 -6 -492 -26 -520
-11 -15 -34 -35 -50 -43 -26 -13 -1141 -16 -9804 -20 l-9775 -5 -99 -47 c-149
-72 -235 -143 -208 -170 6 -6 31 7 70 39 33 26 100 68 148 93 l87 45 9781 5
9781 5 45 27 c25 14 56 38 70 53 l25 27 5 502 c6 571 -7 496 107 643 61 80 76
113 51 113 -7 0 -47 -44 -88 -96z"/>
<path d="M22965 1566 c-32 -49 -35 -96 -35 -566 0 -453 -1 -477 -19 -507 -25
-40 -105 -104 -174 -138 l-54 -26 -9774 -2 -9775 -2 -70 -35 c-89 -45 -194
-140 -154 -140 5 0 37 20 72 44 35 24 81 52 103 62 39 18 314 19 9826 24
l9786 5 87 44 c54 26 106 61 135 90 89 90 81 24 81 631 0 345 -4 540 -10 540
-5 0 -17 -11 -25 -24z"/>
<path d="M12187 1361 c-25 -27 -43 -51 -40 -55 4 -3 23 -6 44 -6 32 0 43 7 78
47 44 49 42 63 -10 63 -18 0 -40 -15 -72 -49z"/>
<path d="M4226 1215 c-8 -9 -19 -30 -25 -48 -5 -18 -37 -126 -70 -241 -34
-115 -60 -215 -57 -222 7 -17 50 -18 64 -1 5 6 13 27 17 45 11 51 29 62 99 62
75 0 92 -11 109 -70 11 -40 16 -45 45 -48 21 -2 34 2 38 11 3 8 -10 66 -29
128 -19 63 -52 173 -72 244 -21 72 -45 136 -53 143 -21 16 -47 15 -66 -3z m74
-241 c15 -55 24 -106 22 -112 -5 -15 -118 -16 -127 -2 -4 6 6 58 21 116 37
135 49 134 84 -2z"/>
<path d="M4808 1219 c-16 -9 -18 -32 -18 -257 0 -136 4 -253 9 -260 6 -10 40
-15 114 -18 117 -4 183 10 223 47 24 22 24 25 24 224 0 196 -1 202 -23 223
-43 40 -90 52 -204 52 -59 0 -116 -5 -125 -11z m221 -40 c17 -6 36 -19 41 -29
6 -10 10 -100 10 -199 0 -223 -2 -226 -135 -219 l-60 3 -3 215 c-2 193 -1 216
15 227 21 16 89 17 132 2z"/>
<path d="M5541 1216 c-8 -9 -11 -88 -9 -267 l3 -254 29 -3 c16 -2 33 2 38 10
5 7 7 72 6 145 -4 186 5 188 77 23 34 -78 52 -110 64 -110 12 0 32 33 66 111
73 164 80 161 80 -28 0 -128 1 -136 22 -150 19 -13 23 -13 40 4 17 17 18 37
15 270 l-3 253 -25 6 c-38 10 -52 -10 -119 -169 -36 -85 -66 -142 -74 -142 -8
0 -39 58 -75 141 -34 78 -67 149 -75 158 -17 20 -45 21 -60 2z"/>
<path d="M6366 1214 c-14 -13 -16 -51 -16 -257 0 -133 4 -248 9 -256 5 -7 21
-13 36 -13 15 0 31 6 36 13 5 8 9 123 9 256 0 206 -2 244 -16 257 -8 9 -22 16
-29 16 -7 0 -21 -7 -29 -16z"/>
<path d="M6820 1211 c-12 -23 -14 -490 -2 -507 12 -18 39 -23 56 -11 13 10 16
40 18 177 2 102 7 165 13 165 10 0 15 -7 143 -215 59 -97 82 -126 101 -128 13
-2 27 1 31 7 3 7 7 121 8 255 2 212 0 246 -13 260 -9 9 -22 16 -29 16 -31 0
-36 -25 -36 -182 0 -126 -3 -158 -13 -158 -13 0 -47 30 -47 41 0 13 -162 276
-177 287 -24 17 -41 15 -53 -7z"/>
<path d="M7566 1214 c-14 -13 -16 -51 -16 -257 0 -133 4 -248 9 -256 5 -7 21
-13 36 -13 15 0 31 6 36 13 13 20 11 486 -1 510 -13 23 -43 25 -64 3z"/>
<path d="M8045 1218 c-11 -6 -23 -16 -27 -22 -11 -15 -10 -118 1 -135 5 -8 65
-57 133 -110 l123 -96 0 -60 0 -60 -87 -3 c-98 -3 -94 -6 -100 83 -3 33 -7 41
-26 43 -38 6 -52 -15 -52 -77 0 -31 4 -62 8 -69 14 -21 62 -28 191 -27 116 1
124 2 142 24 21 26 27 118 9 152 -6 10 -64 59 -130 109 -126 95 -140 111 -140
159 0 46 22 61 91 61 80 0 99 -11 99 -58 0 -48 12 -64 45 -64 34 0 45 16 45
70 0 32 -6 49 -25 67 -23 24 -29 25 -152 25 -76 0 -136 -5 -148 -12z"/>
<path d="M8704 1215 c-9 -23 2 -29 48 -28 80 4 77 12 80 -255 l3 -237 35 0 35
0 3 235 c1 140 6 238 12 244 6 6 34 13 63 16 37 4 52 9 52 20 0 23 -323 28
-331 5z"/>
<path d="M9378 1219 c-16 -9 -18 -33 -18 -265 l0 -255 23 -8 c12 -5 31 -5 42
-1 19 7 20 18 23 241 2 206 4 236 19 247 19 13 141 16 161 3 14 -9 21 -148 8
-169 -4 -7 -24 -12 -44 -12 -48 0 -79 -9 -85 -24 -3 -7 29 -72 70 -145 75
-132 101 -159 138 -145 17 7 20 35 6 50 -24 24 -111 189 -107 201 3 7 18 13
34 13 16 0 41 9 56 21 25 20 26 25 26 117 0 103 -3 113 -37 131 -27 14 -291
15 -315 0z"/>
<path d="M10233 1223 c-21 -8 -169 -511 -155 -525 5 -5 22 -8 38 -6 24 3 30
10 41 48 17 58 34 70 105 70 62 0 98 -21 98 -58 0 -32 29 -62 61 -62 27 0 35
10 29 35 -2 6 -17 60 -35 120 -18 61 -49 166 -69 235 -42 141 -60 165 -113
143z m42 -153 c10 -15 46 -160 48 -190 2 -24 -1 -25 -57 -28 -32 -2 -63 1 -68
6 -7 7 34 190 49 215 6 10 21 9 28 -3z"/>
<path d="M10833 1220 c-12 -5 -26 -17 -32 -28 -6 -11 -10 -111 -11 -239 0
-287 -14 -267 185 -268 142 0 147 1 166 24 22 27 27 119 7 139 -16 16 -53 15
-66 -1 -6 -7 -12 -35 -14 -62 l-3 -50 -90 0 -90 0 -3 215 c-3 248 -6 240 91
240 78 0 97 -11 97 -58 0 -48 12 -64 45 -64 33 0 45 16 45 62 0 54 -9 77 -36
89 -29 13 -259 14 -291 1z"/>
<path d="M11530 1211 c-6 -12 -10 -113 -10 -260 0 -207 2 -242 16 -256 17 -16
53 -12 66 9 12 18 10 484 -2 507 -6 11 -21 19 -35 19 -14 0 -29 -8 -35 -19z"/>
<path d="M12004 1205 l-25 -25 3 -230 c3 -205 5 -231 21 -247 16 -16 37 -18
172 -18 127 0 158 3 170 16 14 13 16 52 17 254 2 298 17 275 -189 275 -140 0
-145 -1 -169 -25z m265 -29 c8 -9 11 -78 9 -227 l-3 -214 -100 0 -100 0 -3
215 c-2 193 -1 216 15 227 24 18 167 17 182 -1z"/>
<path d="M12741 1216 c-8 -9 -11 -88 -9 -267 l3 -254 35 0 35 0 3 168 c2 135
5 167 16 167 8 0 59 -74 113 -165 72 -123 104 -167 121 -172 13 -3 28 -1 33 4
5 5 8 113 7 263 -3 228 -5 254 -20 264 -13 8 -23 8 -35 0 -16 -10 -18 -32 -21
-173 -2 -119 -6 -161 -15 -161 -6 0 -52 68 -102 151 -115 193 -133 212 -164
175z"/>
<path d="M13947 1218 c-16 -12 -17 -37 -15 -268 l3 -255 97 -8 c116 -10 194 3
238 40 l30 25 0 200 0 200 -28 28 c-16 15 -46 33 -68 39 -55 15 -236 14 -257
-1z m215 -38 c21 -6 42 -19 48 -30 11 -21 14 -369 2 -386 -15 -23 -53 -34
-116 -34 -36 0 -68 5 -72 11 -11 18 -4 422 8 436 13 16 79 17 130 3z"/>
<path d="M14682 1221 c-17 -10 -20 -507 -3 -524 15 -15 233 -22 260 -8 18 10
20 15 11 26 -8 10 -40 15 -103 17 l-92 3 -3 80 c-5 127 -6 125 87 125 54 0 82
4 90 13 17 22 3 27 -71 27 -104 0 -108 4 -108 105 0 102 5 107 115 103 79 -2
91 2 82 27 -5 12 -28 15 -129 15 -68 0 -129 -4 -136 -9z"/>
<path d="M15796 1215 c-14 -14 -16 -50 -16 -258 0 -133 4 -248 8 -254 5 -9 48
-14 131 -17 130 -5 151 -2 151 19 0 20 -24 25 -110 25 -49 0 -82 4 -86 11 -9
15 -9 173 0 188 4 6 39 11 86 11 77 0 104 10 82 32 -6 6 -41 10 -79 9 -37 0
-73 2 -79 6 -6 5 -14 42 -17 84 -9 106 -3 113 110 119 69 4 88 8 88 20 0 23
-246 27 -269 5z"/>
<path d="M16442 1218 c-9 -9 -12 -82 -12 -265 l0 -254 23 -8 c12 -5 30 -5 40
1 15 8 17 26 17 153 0 88 4 145 10 145 14 0 33 -34 76 -137 41 -97 65 -118 84
-70 48 119 90 202 101 202 11 0 15 -32 19 -145 l5 -145 29 -3 c16 -2 33 2 37
10 5 7 9 122 8 256 -1 200 -3 245 -16 257 -31 32 -63 11 -95 -62 -14 -32 -40
-94 -58 -138 -47 -113 -61 -127 -80 -82 -5 12 -32 78 -61 147 -28 69 -58 131
-67 138 -20 15 -45 15 -60 0z"/>
<path d="M17251 1216 c-8 -9 -11 -88 -9 -267 l3 -254 35 0 35 0 3 85 c2 46 8
90 14 97 7 9 41 13 113 13 149 0 148 0 149 169 1 176 7 171 -189 171 -109 0
-145 -3 -154 -14z m247 -38 c8 -8 12 -50 12 -124 0 -128 3 -124 -91 -124 -97
0 -99 2 -99 131 0 104 1 110 23 119 33 13 141 12 155 -2z"/>
<path d="M17967 1218 c-16 -12 -17 -34 -15 -268 l3 -255 35 0 35 0 5 238 c4
197 8 239 20 247 24 16 156 12 169 -4 8 -9 11 -43 9 -93 l-3 -78 -57 -3 c-77
-4 -86 -17 -54 -79 116 -218 156 -267 192 -232 14 15 11 25 -45 121 -34 57
-61 111 -61 120 0 11 13 17 42 21 65 9 78 31 78 137 0 134 -1 134 -187 138
-110 2 -153 0 -166 -10z"/>
<path d="M18700 1220 c-13 -8 -15 -48 -15 -260 0 -156 4 -255 10 -260 14 -12
198 -24 240 -16 27 5 35 12 33 24 -3 14 -19 18 -98 22 l-95 5 0 100 0 100 82
3 c56 2 85 7 93 17 10 12 8 16 -11 23 -13 5 -41 7 -62 4 -20 -2 -53 -1 -72 2
l-35 7 0 90 c0 88 1 90 27 100 14 5 57 9 94 7 73 -2 85 2 76 27 -5 12 -28 15
-129 15 -68 0 -130 -5 -138 -10z"/>
<path d="M19365 1218 c-11 -6 -23 -16 -27 -22 -13 -18 -9 -121 5 -139 6 -9 66
-59 132 -110 l120 -93 0 -59 0 -60 -78 -3 c-90 -3 -109 6 -107 52 3 57 0 66
-25 72 -40 10 -55 -11 -55 -75 0 -69 7 -80 56 -91 57 -13 266 -2 283 16 16 14
22 124 9 156 -4 9 -61 57 -127 107 -66 50 -125 100 -131 110 -15 29 -12 77 6
95 19 20 144 22 162 4 7 -7 12 -31 12 -55 0 -45 23 -69 55 -57 38 15 48 96 16
135 -18 23 -26 24 -153 27 -88 1 -140 -2 -153 -10z"/>
<path d="M20179 1220 c-10 -6 -43 -103 -89 -261 -72 -242 -73 -252 -55 -265
27 -20 57 3 72 56 7 24 18 47 25 52 18 11 130 10 148 -2 8 -5 22 -30 30 -56
18 -53 46 -71 76 -49 18 12 18 16 2 62 -9 26 -42 138 -74 248 -31 110 -64 206
-72 213 -18 14 -41 15 -63 2z m52 -182 c6 -24 20 -70 29 -103 10 -33 15 -65
13 -72 -7 -18 -122 -18 -129 0 -4 13 38 185 51 207 12 20 24 9 36 -32z"/>
<path d="M20770 1217 c-22 -11 -25 -20 -28 -75 -2 -34 2 -71 8 -82 6 -11 62
-58 124 -105 62 -46 118 -91 125 -99 7 -8 11 -36 9 -68 l-3 -53 -90 0 -90 0
-3 50 c-4 59 -16 77 -51 73 -25 -3 -26 -6 -29 -75 -4 -96 0 -98 180 -98 169 0
172 2 171 103 0 38 -3 74 -6 80 -4 5 -51 42 -104 82 -150 112 -163 126 -163
177 0 52 16 63 95 63 79 0 95 -11 95 -65 0 -49 20 -68 58 -58 45 11 39 126 -8
150 -34 17 -256 17 -290 0z"/>
</g>
</svg>
