<?xml version="1.0" standalone="no"?>
<!DOCTYPE svg PUBLIC "-//W3C//DTD SVG 20010904//EN"
 "http://www.w3.org/TR/2001/REC-SVG-20010904/DTD/svg10.dtd">
<svg version="1.0" xmlns="http://www.w3.org/2000/svg"
 width="891.000000pt" height="866.000000pt" viewBox="0 0 891.000000 866.000000"
 preserveAspectRatio="xMidYMid meet">

<g transform="translate(0.000000,866.000000) scale(0.100000,-0.100000)"
fill="#000000" stroke="none">
<path d="M4365 8520 c-38 -28 -75 -50 -82 -50 -7 0 -38 -17 -70 -38 -72 -47
-85 -54 -150 -89 -29 -15 -53 -31 -53 -35 0 -4 -4 -8 -9 -8 -15 0 -53 -18 -96
-45 -22 -14 -51 -30 -65 -36 -14 -6 -32 -16 -40 -24 -8 -7 -51 -32 -95 -56
-44 -23 -100 -55 -125 -70 -25 -15 -65 -38 -88 -51 -24 -12 -54 -32 -67 -44
-12 -11 -29 -21 -36 -21 -8 0 -40 -16 -71 -36 -31 -21 -59 -37 -62 -37 -9 0
-267 -145 -355 -199 -42 -26 -83 -50 -91 -54 -19 -10 -40 -23 -112 -70 -31
-20 -61 -37 -66 -37 -18 0 -305 -163 -434 -247 -37 -24 -71 -43 -74 -42 -4 0
-10 -3 -13 -8 -3 -4 -58 -34 -121 -67 -99 -51 -227 -125 -305 -176 -34 -22
-111 -65 -195 -109 l-75 -39 -3 -1743 -2 -1744 21 -18 c12 -9 25 -17 29 -17 4
0 41 60 83 132 41 73 114 200 161 282 l86 150 0 1376 0 1376 98 61 c53 33 149
88 212 123 63 35 196 111 295 170 99 59 216 126 260 150 44 24 150 84 235 135
85 51 202 118 260 150 205 112 340 197 340 214 0 12 2 13 8 3 6 -9 90 35 308
160 164 94 333 190 374 213 41 23 115 65 164 94 l88 52 127 -74 c69 -41 281
-163 471 -272 190 -109 498 -286 685 -393 187 -108 374 -215 415 -239 80 -46
88 -44 89 16 2 50 60 149 122 204 l61 55 -44 25 c-24 14 -457 262 -963 552
-506 290 -924 531 -929 536 -16 15 -28 10 -101 -41z m-1619 -972 c4 -7 4 -10
-1 -6 -4 4 -14 0 -22 -8 -9 -8 -18 -12 -22 -9 -3 4 3 13 13 21 24 17 23 17 32
2z"/>
<path d="M6505 7327 c-56 -27 -107 -80 -130 -134 -19 -46 -19 -134 0 -180 8
-19 15 -40 15 -45 0 -5 -19 -30 -43 -56 -24 -26 -54 -61 -68 -78 -13 -18 -89
-108 -170 -200 -80 -93 -192 -225 -250 -294 -133 -158 -331 -393 -477 -563
-223 -262 -358 -421 -407 -482 -95 -117 -290 -340 -366 -420 l-77 -80 -36 18
c-20 9 -45 17 -56 17 -27 0 -103 -34 -119 -54 -32 -39 -49 -39 -106 0 -30 20
-89 68 -130 106 -83 77 -85 77 -123 9 l-22 -39 52 -53 c81 -79 133 -120 201
-154 51 -26 62 -37 70 -65 29 -113 162 -168 265 -110 65 37 96 89 97 164 l0
62 106 115 c59 63 191 215 295 339 103 124 280 333 394 465 113 132 219 256
235 276 17 20 102 121 190 225 89 104 270 319 404 477 243 287 243 288 275
280 17 -4 58 -8 92 -8 190 2 292 217 181 382 -62 91 -193 127 -292 80z m176
-136 c34 -34 39 -45 39 -84 0 -37 -6 -53 -31 -81 -53 -61 -130 -58 -185 7 -22
27 -25 38 -22 79 7 73 54 116 127 117 26 1 42 -8 72 -38z m-2187 -2497 c56
-57 20 -144 -59 -144 -25 0 -40 8 -59 31 -34 40 -33 74 3 110 38 37 79 38 115
3z"/>
<path d="M6988 7046 c-6 -70 -49 -154 -112 -218 -39 -39 -46 -52 -35 -59 8 -5
66 -39 129 -77 l115 -68 3 -668 2 -668 43 8 c112 21 204 -8 280 -88 l47 -50
-2 842 -3 843 -224 128 c-123 71 -227 129 -231 129 -4 0 -10 -24 -12 -54z"/>
<path d="M4524 6984 c3 -8 27 -44 52 -80 l46 -64 -46 -64 c-66 -92 -67 -98
-20 -94 34 3 43 9 69 50 17 26 33 48 37 48 5 0 23 -22 40 -50 30 -45 37 -50
71 -50 20 0 37 3 37 6 0 4 -20 35 -45 70 -25 34 -48 69 -51 77 -3 9 14 42 40
77 54 73 57 90 17 90 -24 0 -36 -10 -65 -50 -20 -28 -41 -48 -46 -45 -5 3 -21
26 -36 51 -24 40 -29 44 -66 44 -32 0 -39 -3 -34 -16z"/>
<path d="M5417 6994 c-4 -4 -7 -18 -7 -30 0 -17 7 -23 28 -26 l27 -3 3 -127 3
-128 35 0 35 0 -3 158 -3 157 -55 3 c-31 2 -59 0 -63 -4z"/>
<path d="M5627 6993 c-3 -4 -6 -44 -8 -88 l-4 -80 60 -5 c72 -6 85 -13 85 -46
0 -38 -38 -50 -95 -32 -46 15 -46 15 -62 -9 -16 -24 -16 -26 1 -39 25 -18 97
-28 142 -19 55 10 84 45 84 100 0 60 -29 91 -94 100 -51 8 -60 16 -51 45 5 16
17 20 68 22 59 3 62 4 62 28 0 25 -1 25 -92 28 -50 1 -93 -1 -96 -5z"/>
<path d="M6569 6688 c-1 -7 -1 -17 0 -22 1 -4 -3 -14 -9 -20 -5 -7 -7 -15 -4
-19 3 -3 -4 -10 -15 -17 -12 -6 -21 -15 -21 -21 0 -5 14 0 30 13 19 14 26 24
19 29 -8 4 -4 9 9 13 14 5 18 13 15 27 -7 23 -23 35 -24 17z"/>
<path d="M6570 6589 c0 -5 5 -7 10 -4 6 3 10 8 10 11 0 2 -4 4 -10 4 -5 0 -10
-5 -10 -11z"/>
<path d="M6498 6546 c-13 -18 -14 -23 -2 -23 7 0 16 9 20 19 9 28 1 29 -18 4z"/>
<path d="M6567 6523 c-4 -3 -7 -11 -7 -17 0 -6 5 -5 12 2 6 6 9 14 7 17 -3 3
-9 2 -12 -2z"/>
<path d="M6520 6509 c0 -6 -7 -17 -15 -25 -16 -16 -20 -36 -7 -32 4 1 16 -3
27 -9 19 -10 20 -19 15 -134 l-5 -124 -52 -3 c-33 -2 -53 -8 -52 -15 1 -23
136 -252 148 -252 7 0 46 59 87 130 l74 130 -57 5 -58 5 -7 110 c-10 148 -9
144 -34 117 l-20 -22 1 33 c1 17 -3 35 -9 39 -7 5 -4 8 7 8 23 0 22 8 -5 31
-26 21 -38 24 -38 8z"/>
<path d="M5505 6426 c-66 -24 -131 -48 -143 -55 -23 -12 -23 -12 19 -50 l42
-37 -109 -125 c-60 -68 -154 -175 -208 -238 l-98 -114 31 -30 c17 -17 32 -29
34 -26 19 25 71 88 126 149 187 210 255 287 272 305 19 19 19 19 59 -20 22
-21 41 -37 44 -34 3 3 66 300 66 314 0 9 -11 5 -135 -39z"/>
<path d="M6450 6461 c0 -5 5 -13 10 -16 6 -3 10 -2 10 4 0 5 -4 13 -10 16 -5
3 -10 2 -10 -4z"/>
<path d="M4370 6075 c-79 -36 -110 -87 -110 -180 0 -63 -2 -68 -49 -128 -61
-79 -142 -220 -266 -466 -165 -326 -311 -518 -498 -659 -188 -140 -439 -223
-724 -239 l-113 -6 0 -59 c0 -45 4 -60 17 -65 21 -8 251 13 356 33 241 46 478
165 654 328 157 146 268 309 443 651 120 236 197 372 243 429 22 27 26 28 57
18 47 -17 80 -15 125 8 22 11 47 20 56 20 24 0 100 -87 231 -262 61 -82 114
-148 118 -148 13 0 70 70 70 86 0 25 -222 314 -294 381 -54 52 -66 69 -66 95
0 118 -142 211 -250 163z m127 -107 c52 -49 14 -148 -57 -148 -43 0 -90 47
-90 90 0 70 95 107 147 58z"/>
<path d="M5991 6041 c-17 -21 -31 -43 -31 -49 0 -5 -7 -15 -15 -22 -26 -22
-17 -30 34 -30 58 0 61 -5 61 -97 l0 -65 33 21 c29 18 33 26 37 78 l5 58 51 5
51 5 -24 44 c-12 24 -23 39 -23 32 0 -7 5 -21 10 -32 10 -17 7 -19 -20 -19
-23 0 -30 5 -30 19 0 10 -7 24 -15 31 -12 10 -15 10 -15 -1 0 -12 -2 -12 -9 0
-7 11 -11 10 -20 -5 -11 -17 -12 -16 -8 8 4 25 2 27 -20 21 -23 -5 -24 -4 -14
16 19 35 -5 24 -38 -18z m56 -17 c-3 -3 -12 -4 -19 -1 -8 3 -5 6 6 6 11 1 17
-2 13 -5z"/>
<path d="M5563 5615 c-6 -19 -8 -34 -4 -33 17 2 28 -3 28 -14 0 -7 4 -22 7
-33 6 -17 5 -16 -5 2 -14 25 -54 40 -45 16 4 -10 2 -13 -8 -10 -13 5 -13 1 -1
-33 12 -34 12 -38 -1 -33 -7 3 -12 8 -10 12 3 4 1 13 -5 21 -8 14 -11 7 -8
-17 0 -3 -6 -10 -15 -15 -9 -5 -16 -16 -16 -23 0 -8 -9 -24 -20 -35 -32 -32
-25 -41 29 -35 57 5 65 -5 56 -69 -3 -23 -2 -59 3 -81 6 -24 10 -31 11 -17 1
12 6 22 12 22 6 0 9 7 5 15 -3 8 -2 15 2 15 5 0 7 14 6 30 -1 17 2 30 7 30 5
0 10 -12 11 -27 1 -16 4 -3 7 27 l6 55 53 -2 c58 -3 65 7 35 48 -21 28 -27 39
-77 137 -21 39 -41 74 -45 77 -5 2 -13 -11 -18 -30z m-40 -178 c7 3 8 2 4 -2
-10 -11 -37 -15 -37 -6 0 14 14 23 18 12 2 -6 9 -8 15 -4z"/>
<path d="M3260 5394 c-150 -40 -299 -194 -405 -419 -45 -95 -155 -397 -155
-424 0 -15 11 -21 58 -29 31 -6 60 -7 63 -4 3 4 23 59 43 122 103 320 218 509
366 603 14 9 56 21 94 27 56 9 78 8 120 -4 64 -19 156 -78 227 -145 l53 -51
28 45 c15 25 28 53 28 62 0 28 -135 140 -220 183 -47 24 -157 50 -210 49 -19
0 -60 -7 -90 -15z"/>
<path d="M6384 5360 c-27 -11 -72 -65 -80 -96 -9 -35 3 -85 35 -146 15 -29 54
-102 86 -163 32 -60 87 -163 122 -228 36 -66 62 -121 60 -124 -3 -2 -26 3 -51
11 -63 22 -111 20 -156 -5 -47 -27 -70 -66 -70 -121 0 -83 20 -100 296 -244
302 -157 353 -189 393 -248 18 -25 38 -46 44 -46 15 0 525 276 545 295 11 10
9 23 -8 76 -13 37 -28 123 -36 206 -9 91 -22 162 -35 196 -27 67 -187 376
-208 401 -45 51 -142 60 -196 18 -25 -20 -29 -20 -56 -7 -44 23 -99 19 -143
-11 -35 -24 -43 -26 -71 -15 -45 16 -75 14 -120 -9 -49 -25 -46 -27 -122 115
-67 125 -100 155 -167 154 -23 0 -50 -4 -62 -9z m98 -97 c14 -18 149 -267 243
-451 50 -98 67 -115 103 -101 35 13 28 52 -28 155 -27 51 -50 101 -50 110 0
42 63 71 88 41 6 -7 34 -59 62 -115 54 -109 84 -138 115 -112 24 20 18 56 -26
141 -39 76 -40 80 -25 104 19 29 56 33 78 8 8 -10 35 -55 59 -101 50 -96 69
-116 98 -107 37 11 36 47 -4 125 -32 61 -36 75 -27 96 17 35 64 33 90 -3 11
-16 61 -110 112 -211 92 -182 92 -182 101 -285 11 -120 26 -228 34 -249 5 -12
-37 -40 -172 -116 -98 -55 -193 -107 -212 -117 l-34 -17 -31 36 c-39 44 -89
74 -366 217 -122 63 -233 124 -246 136 -28 26 -31 55 -7 78 24 24 72 15 186
-35 53 -23 104 -40 113 -38 30 6 40 33 24 65 -8 15 -75 141 -149 278 -212 396
-221 414 -221 438 0 13 5 28 12 35 18 18 63 15 80 -5z"/>
<path d="M6922 5293 c4 -34 41 -40 46 -8 3 20 3 20 -13 1 -14 -19 -15 -19 -15
7 0 15 -5 27 -11 27 -6 0 -9 -12 -7 -27z"/>
<path d="M6725 5280 c-9 -15 -1 -23 21 -18 15 3 16 4 1 16 -11 9 -17 10 -22 2z"/>
<path d="M5146 5156 l-35 -44 47 -44 c173 -162 377 -221 590 -173 97 23 100
25 77 77 -10 24 -22 47 -26 52 -4 4 -36 1 -71 -8 -117 -29 -239 -17 -340 35
-21 11 -74 49 -118 84 -44 36 -82 65 -84 65 -2 0 -20 -20 -40 -44z"/>
<path d="M6115 5169 c-4 -6 -5 -12 -2 -15 2 -3 7 2 10 11 7 17 1 20 -8 4z"/>
<path d="M6167 5159 c4 -13 8 -18 11 -10 2 7 -1 18 -6 23 -8 8 -9 4 -5 -13z"/>
<path d="M5551 5138 c-1 -36 1 -38 29 -38 20 0 30 5 30 15 0 8 -3 14 -7 14
-26 -4 -42 4 -46 24 -3 13 -5 8 -6 -15z"/>
<path d="M6275 5000 c3 -5 8 -10 11 -10 2 0 4 5 4 10 0 6 -5 10 -11 10 -5 0
-7 -4 -4 -10z"/>
<path d="M6251 4974 c0 -11 3 -14 6 -6 3 7 2 16 -1 19 -3 4 -6 -2 -5 -13z"/>
<path d="M2528 4823 c-16 -18 -33 -47 -298 -498 -84 -143 -168 -285 -185 -315
-18 -30 -82 -138 -141 -240 -59 -102 -195 -333 -301 -515 -106 -181 -193 -333
-193 -337 0 -5 592 -8 1316 -8 l1317 0 44 -41 c83 -76 210 -119 353 -119 143
0 264 41 352 119 l46 41 1316 0 c947 0 1316 3 1316 11 0 6 -8 23 -19 37 -28
41 -126 205 -266 447 -70 121 -176 303 -236 405 l-108 185 -118 60 c-65 33
-121 62 -125 63 -18 8 -4 -23 62 -135 l69 -118 -267 -6 c-455 -11 -730 -43
-1022 -117 -372 -95 -667 -245 -873 -444 -39 -37 -72 -68 -74 -68 -1 0 -4 199
-5 443 l-3 442 -45 0 -45 0 -3 -437 c-1 -241 -5 -438 -8 -438 -3 0 -36 27 -72
61 -292 267 -688 432 -1220 509 -201 29 -344 39 -659 47 l-282 6 16 31 c9 17
46 83 83 146 38 63 134 230 215 370 81 140 155 264 165 275 21 24 70 137 63
147 -2 5 -37 8 -77 8 -57 0 -76 -4 -88 -17z m244 -1103 c505 -37 954 -162
1246 -347 68 -43 155 -114 148 -120 -3 -3 -54 18 -115 46 -254 118 -546 192
-963 242 -148 18 -228 21 -553 20 -209 0 -425 -5 -479 -11 -58 -6 -103 -7
-109 -1 -5 5 14 45 45 95 l52 86 301 0 c165 0 357 -5 427 -10z m4129 -80 c26
-47 44 -89 40 -93 -5 -5 -52 -4 -104 2 -122 14 -856 14 -968 1 -46 -6 -124
-15 -174 -21 -319 -38 -649 -125 -879 -233 -54 -25 -101 -46 -104 -46 -16 0
54 59 127 107 255 169 569 273 1000 334 217 30 335 36 690 35 l324 -1 48 -85z
m-4083 -180 c398 -17 725 -75 1023 -183 108 -39 213 -87 206 -94 -3 -2 -36 3
-73 12 -159 37 -377 69 -659 97 -155 16 -874 15 -1105 -1 -330 -22 -380 -24
-380 -15 0 5 22 44 49 86 33 50 58 79 73 83 19 4 313 16 583 23 28 1 155 -3
283 -8z m4102 -17 c24 -6 43 -21 61 -48 37 -54 74 -123 69 -128 -3 -2 -52 0
-110 4 -473 36 -904 47 -1210 30 -308 -17 -636 -58 -814 -102 -43 -11 -80 -18
-83 -16 -6 7 116 64 212 99 205 75 551 147 815 168 130 10 1012 4 1060 -7z
m-3600 -249 c269 -21 573 -67 619 -94 10 -6 -420 -10 -1091 -10 -609 0 -1109
4 -1112 8 -3 5 7 23 22 39 l27 31 365 21 c534 32 819 33 1170 5z m3325 0 c415
-23 455 -27 477 -54 43 -53 105 -50 -1089 -50 -609 0 -1103 4 -1098 8 21 18
268 62 450 81 405 42 699 45 1260 15z"/>
<path d="M3863 4727 c-23 -33 -23 -34 -23 -470 l0 -436 31 -17 c17 -8 34 -12
38 -7 11 13 -3 956 -14 960 -5 1 -20 -12 -32 -30z"/>
<path d="M4810 4365 c0 -4 23 -40 51 -80 l52 -73 -52 -73 c-28 -40 -51 -79
-51 -86 0 -15 43 -17 68 -4 9 5 28 30 42 55 13 25 28 46 32 46 4 0 20 -19 35
-42 15 -24 34 -49 42 -55 20 -17 71 -17 71 0 0 7 -23 44 -50 82 -28 39 -48 76
-45 83 3 7 25 42 50 76 25 35 45 66 45 70 0 3 -16 6 -35 6 -31 0 -40 -6 -71
-50 -20 -27 -39 -50 -42 -49 -4 0 -20 21 -37 47 -26 41 -35 47 -67 50 -21 2
-38 0 -38 -3z"/>
<path d="M5700 4340 c0 -27 3 -30 30 -30 l29 0 3 -132 3 -133 30 0 30 0 0 160
0 160 -62 3 -63 3 0 -31z"/>
<path d="M5916 4362 c-2 -4 -7 -44 -11 -90 l-8 -82 54 0 c60 0 99 -20 99 -50
0 -11 -9 -24 -21 -31 -22 -11 -85 -4 -106 12 -8 7 -16 3 -27 -13 -22 -32 -21
-37 19 -54 70 -29 170 -11 195 35 13 26 13 87 -1 113 -13 24 -67 48 -109 48
-28 0 -31 3 -28 28 3 26 6 27 63 30 67 3 80 11 70 41 -6 19 -14 21 -95 21 -49
0 -91 -3 -94 -8z"/>
<path d="M3323 4304 l-33 -14 0 -154 c0 -85 3 -157 8 -159 4 -2 19 -7 33 -11
l27 -6 4 173 c3 94 2 175 -1 178 -3 4 -21 0 -38 -7z"/>
<path d="M2744 4156 c-3 -7 -4 -35 -2 -62 3 -42 6 -49 28 -54 43 -11 50 -2 50
66 l0 64 -35 0 c-21 0 -38 -6 -41 -14z"/>
<path d="M7295 3924 c-82 -46 -157 -87 -165 -92 -12 -7 4 -40 81 -173 53 -90
119 -206 148 -257 51 -90 54 -93 75 -79 21 14 21 19 24 351 1 185 -1 336 -5
335 -5 -1 -75 -39 -158 -85z"/>
<path d="M2376 2752 c5 -5 140 -82 299 -172 160 -89 371 -209 470 -265 99 -56
302 -171 450 -255 149 -84 351 -198 450 -255 264 -150 382 -215 390 -215 8 0
168 88 345 190 74 42 245 140 380 215 135 76 342 193 460 260 381 216 693 392
766 431 146 80 168 74 -266 71 l-385 -2 -465 -266 c-880 -503 -822 -472 -850
-459 -14 7 -122 67 -240 135 -118 67 -314 178 -435 247 -121 69 -308 175 -416
236 l-197 112 -383 0 c-211 0 -379 -4 -373 -8z"/>
<path d="M554 1209 c-222 -21 -358 -142 -358 -319 0 -156 101 -236 384 -305
80 -19 162 -43 183 -52 84 -37 111 -113 61 -173 -43 -50 -85 -63 -209 -64
-125 0 -203 20 -308 81 -32 19 -60 33 -62 31 -1 -1 -19 -35 -39 -75 -33 -66
-34 -73 -20 -88 48 -47 206 -102 338 -116 264 -29 473 62 521 226 29 100 14
181 -47 250 -54 61 -134 97 -323 145 -88 22 -179 50 -203 61 -95 46 -94 146 2
200 32 18 60 23 140 27 112 5 193 -11 277 -53 36 -19 49 -21 56 -12 11 14 63
131 63 141 0 13 -129 64 -201 80 -93 19 -164 23 -255 15z"/>
<path d="M1265 1188 c-3 -7 -4 -245 -3 -528 l3 -515 103 -3 102 -3 -2 528 -3
528 -98 3 c-72 2 -99 -1 -102 -10z"/>
<path d="M1760 670 l0 -530 95 0 95 0 0 335 c0 184 4 335 8 335 9 0 100 -135
172 -255 70 -115 184 -289 195 -298 5 -4 30 -6 53 -5 l44 3 91 147 c51 81 130
209 176 284 68 112 86 134 92 118 4 -10 8 -164 8 -341 l1 -323 95 0 95 0 -2
528 -3 527 -85 0 -84 0 -161 -260 c-244 -393 -261 -419 -271 -422 -5 -1 -26
25 -47 60 -21 34 -118 188 -216 342 l-179 280 -86 3 -86 3 0 -531z"/>
<path d="M3256 1185 c-10 -28 -7 -585 4 -673 13 -105 45 -177 107 -243 84 -90
174 -131 313 -144 290 -26 497 122 530 380 6 45 10 214 8 385 l-3 305 -100 0
-100 0 -5 -355 c-5 -386 -4 -373 -66 -457 -80 -107 -305 -110 -406 -6 -71 74
-72 78 -78 468 l-5 350 -96 3 c-81 2 -98 0 -103 -13z"/>
<path d="M4490 670 l0 -530 385 0 386 0 -3 83 -3 82 -280 5 -280 5 -3 443 -2
442 -100 0 -100 0 0 -530z"/>
<path d="M5425 1188 c-3 -7 -4 -245 -3 -528 l3 -515 413 -3 413 -2 -3 82 -3
83 -307 3 -308 2 0 140 0 140 265 0 265 0 0 85 0 85 -262 2 -263 3 0 130 0
130 298 3 298 2 -3 83 -3 82 -398 3 c-313 2 -399 0 -402 -10z"/>
<path d="M6470 671 l0 -531 288 0 c253 0 297 3 371 20 219 53 354 192 398 408
15 76 15 91 0 179 -29 179 -120 309 -270 383 -120 59 -144 62 -479 67 l-308 5
0 -531z m553 349 c125 -18 225 -91 275 -200 22 -46 26 -70 26 -150 0 -83 -3
-103 -28 -157 -31 -68 -89 -129 -153 -161 -63 -32 -135 -42 -308 -42 l-165 0
0 354 c0 274 3 355 13 359 22 9 270 7 340 -3z"/>
<path d="M7737 1194 c-11 -11 -8 -632 4 -704 12 -77 54 -172 98 -222 162 -185
554 -196 729 -21 64 64 100 140 118 249 19 119 20 662 1 688 -10 14 -26 16
-102 14 l-90 -3 -5 -350 -5 -350 -28 -57 c-15 -31 -42 -67 -60 -81 -108 -82
-289 -73 -379 20 -72 74 -72 78 -78 468 l-5 350 -95 3 c-53 1 -99 0 -103 -4z"/>
</g>
</svg>
